<svg xmlns="http://www.w3.org/2000/svg" viewBox="0 0 1800 1200" width="1800" height="1200" preserveAspectRatio="xMidYMid slice">
<defs>
    <filter id="grainK" x="-2%" y="-2%" width="104%" height="104%">
      <feTurbulence type="fractalNoise" baseFrequency="0.9" numOctaves="3" seed="7" result="n"/>
      <feColorMatrix in="n" type="saturate" values="0"/>
      <feComponentTransfer><feFuncA type="linear" slope="0.55"/></feComponentTransfer>
    </filter>
    <filter id="softK" x="-25%" y="-25%" width="150%" height="150%">
      <feGaussianBlur stdDeviation="26"/>
    </filter>
    <filter id="hazeK" x="-20%" y="-20%" width="140%" height="140%">
      <feGaussianBlur stdDeviation="9"/>
    </filter>
  <linearGradient id="day" x1="0" y1="0" x2="0" y2="1">
    <stop offset="0%"   stop-color="#7d8b98"/>
    <stop offset="46%"  stop-color="#c3c8cb"/>
    <stop offset="78%"  stop-color="#e8dcc8"/>
    <stop offset="100%" stop-color="#f3e9d8"/>
  </linearGradient>
  <linearGradient id="dawn" x1="0" y1="0" x2="0" y2="1">
    <stop offset="0%"   stop-color="#2b3742"/>
    <stop offset="38%"  stop-color="#8d9499"/>
    <stop offset="74%"  stop-color="#dcc7a6"/>
    <stop offset="100%" stop-color="#f0dcbb"/>
  </linearGradient>
  <linearGradient id="fire" x1="0" y1="1" x2="0" y2="0">
    <stop offset="0%"   stop-color="#ffe6bb"/>
    <stop offset="46%"  stop-color="#f0a95e"/>
    <stop offset="100%" stop-color="#6d3512"/>
  </linearGradient>
  <linearGradient id="woodv" x1="0" y1="0" x2="0" y2="1">
    <stop offset="0%" stop-color="#c6a781"/><stop offset="100%" stop-color="#3f2f1f"/>
  </linearGradient>
  <linearGradient id="beam" x1="0" y1="0" x2="0" y2="1">
    <stop offset="0%" stop-color="#f2ece3" stop-opacity="0.55"/>
    <stop offset="100%" stop-color="#f2ece3" stop-opacity="0"/>
  </linearGradient>
  <linearGradient id="beamw" x1="0" y1="0" x2="0" y2="1">
    <stop offset="0%" stop-color="#f0c48d" stop-opacity="0.5"/>
    <stop offset="100%" stop-color="#d99a5c" stop-opacity="0"/>
  </linearGradient>
  <radialGradient id="warm" cx="50%" cy="50%" r="50%">
    <stop offset="0%"  stop-color="#f0c48d" stop-opacity="0.9"/>
    <stop offset="40%" stop-color="#d99a5c"  stop-opacity="0.34"/>
    <stop offset="100%" stop-color="#d99a5c" stop-opacity="0"/>
  </radialGradient>
  <radialGradient id="cool" cx="50%" cy="50%" r="50%">
    <stop offset="0%"  stop-color="#dde6ee" stop-opacity="0.55"/>
    <stop offset="100%" stop-color="#dde6ee" stop-opacity="0"/>
  </radialGradient>
  <linearGradient id="aqua" x1="0" y1="0" x2="0" y2="1">
    <stop offset="0%"   stop-color="#2f6a79" stop-opacity="0.55"/>
    <stop offset="42%"  stop-color="#3f8494" stop-opacity="0.30"/>
    <stop offset="100%" stop-color="#8fd0dd" stop-opacity="0.18"/>
  </linearGradient>
  <radialGradient id="vg" cx="50%" cy="46%" r="72%">
    <stop offset="52%" stop-color="#000" stop-opacity="0"/>
    <stop offset="100%" stop-color="#000" stop-opacity="0.52"/>
  </radialGradient></defs>

  
  <path d="M -600 -280 L 2400 -280 L 1538.3 237.02 L 261.7 237.02 Z" fill="#0b0d0e"/>
  <path d="M -600 1520 L 2400 1520 L 1538.3 1002.98 L 261.7 1002.98 Z" fill="#17191c"/>
  <path d="M -600 1520 L 261.7 1002.98 L 261.7 237.02 L -600 -280 Z" fill="#1c2024"/>
  <path d="M 2400 1520 L 1538.3 1002.98 L 1538.3 237.02 L 2400 -280 Z" fill="#141719"/>
  <path d="M 261.7 1002.98 L 1538.3 1002.98 L 1538.3 237.02 L 261.7 237.02 Z" fill="#1a1e23"/>
  <path d="M -600 1519.1 L 261.7 1002.6 M -412.5 1519.1 L 341.49 1002.6 M -225 1519.1 L 421.28 1002.6 M -37.5 1519.1 L 501.06 1002.6 M 150 1519.1 L 580.85 1002.6 M 337.5 1519.1 L 660.64 1002.6 M 525 1519.1 L 740.43 1002.6 M 712.5 1519.1 L 820.21 1002.6 M 900 1519.1 L 900 1002.6 M 1087.5 1519.1 L 979.79 1002.6 M 1275 1519.1 L 1059.57 1002.6 M 1462.5 1519.1 L 1139.36 1002.6 M 1650 1519.1 L 1219.15 1002.6 M 1837.5 1519.1 L 1298.94 1002.6 M 2025 1519.1 L 1378.72 1002.6 M 2212.5 1519.1 L 1458.51 1002.6 M 2400 1519.1 L 1538.3 1002.6 " stroke="#08090a" stroke-width="1.7" opacity="0.4" fill="none"/>
  <path d="M 500.82 983.13 L 521.42 983.13 L 521.42 542.74 L 500.82 542.74 Z" fill="#2b3038"/><path d="M 600.61 983.13 L 621.21 983.13 L 621.21 542.74 L 600.61 542.74 Z" fill="#8d7757"/><path d="M 700.41 983.13 L 721.01 983.13 L 721.01 542.74 L 700.41 542.74 Z" fill="#2b3038"/><path d="M 800.2 983.13 L 820.81 983.13 L 820.81 542.74 L 800.2 542.74 Z" fill="#8d7757"/><path d="M 900 983.13 L 920.6 983.13 L 920.6 542.74 L 900 542.74 Z" fill="#2b3038"/><path d="M 999.8 983.13 L 1020.4 983.13 L 1020.4 542.74 L 999.8 542.74 Z" fill="#8d7757"/><path d="M 1099.59 983.13 L 1120.2 983.13 L 1120.2 542.74 L 1099.59 542.74 Z" fill="#2b3038"/><path d="M 1199.39 983.13 L 1219.99 983.13 L 1219.99 542.74 L 1199.39 542.74 Z" fill="#8d7757"/><path d="M 1299.18 983.13 L 1319.79 983.13 L 1319.79 542.74 L 1299.18 542.74 Z" fill="#2b3038"/>
  <path d="M 116.26 1103.31 L 1683.74 1103.31 L 1566.26 1030.86 L 233.74 1030.86 Z" fill="#2e2417"/><path d="M 116.26 1273.12 L 1683.74 1273.12 L 1683.74 1103.31 L 116.26 1103.31 Z" fill="#0c0e10"/><path d="M 116.26 1103.31 L 1683.74 1103.31" stroke="#f0c48d" stroke-width="2.6" opacity="0.4" fill="none"/>
  <ellipse cx="900" cy="520" rx="440" ry="170" fill="url(#warm)" opacity="0.34"/>
  <path d="M -600 1520 L 261.7 1002.98 M 2400 1520 L 1538.3 1002.98 M -600 -280 L 261.7 237.02 M 2400 -280 L 1538.3 237.02 M 261.7 1002.98 L 1538.3 1002.98 M 261.7 237.02 L 1538.3 237.02 M 261.7 1002.98 L 261.7 237.02 M 1538.3 1002.98 L 1538.3 237.02 " stroke="#e8e0d2" stroke-width="1.4" fill="none" opacity="0.12"/>
<rect width="1800" height="1200" filter="url(#grainK)" opacity="0.055" style="mix-blend-mode:overlay"/><rect width="1800" height="1200" fill="url(#vg)"/>
</svg>
